<?xml version="1.0" encoding="UTF-8"?>
<svg version="1.1" xmlns="http://www.w3.org/2000/svg" width="225" height="225">
<path d="M0 0 C74.25 0 148.5 0 225 0 C225 74.25 225 148.5 225 225 C150.75 225 76.5 225 0 225 C0 150.75 0 76.5 0 0 Z " fill="#19278F" transform="translate(0,0)"/>
<path d="M0 0 C7.75435333 -0.55388238 12.4397797 1.05400301 18.4453125 6.0234375 C21.73869784 8.97439134 24.95987373 11.99035362 28.1328125 15.0703125 C34.18636091 20.74403042 39.50699505 22.45066184 47.85546875 22.26953125 C51.2454954 21.84346233 54.38791323 20.77901574 57.60546875 19.65625 C60.17037333 18.95330715 62.35324805 18.88717221 65 19 C60.64220767 28.44188337 53.96958912 34.9295346 45 40 C40.9304259 41.21216894 36.90296315 41.22085246 32.6875 41.25 C31.95337891 41.270625 31.21925781 41.29125 30.46289062 41.3125 C22.44536645 41.36941233 15.97047017 38.32538489 10 33 C2.8499478 24.89549118 -0.1634294 17.48694592 -0.0625 6.6875 C-0.05347656 5.43324219 -0.04445312 4.17898437 -0.03515625 2.88671875 C-0.01775391 1.45779297 -0.01775391 1.45779297 0 0 Z " fill="#F8F9FA" transform="translate(36,103)"/>
<path d="M0 0 C2.68860931 -0.10887507 5.37273158 -0.18770594 8.0625 -0.25 C8.81466797 -0.28351563 9.56683594 -0.31703125 10.34179688 -0.3515625 C16.06454718 -0.45065774 19.25548893 0.79918775 24 4 C24.46882399 12.12628256 24.46882399 12.12628256 22.625 15.5625 C21 17 21 17 19 17 C19 17.66 19 18.32 19 19 C19.78375 19.28875 20.5675 19.5775 21.375 19.875 C24 21 24 21 26 23 C26.77613478 29.65258385 26.77613478 29.65258385 24.94921875 32.82421875 C23.17093333 34.99068447 21.52353867 36.73823066 19 38 C17.47851674 38.08372659 15.95344222 38.10730027 14.4296875 38.09765625 C13.53378906 38.09443359 12.63789063 38.09121094 11.71484375 38.08789062 C10.30912109 38.07532227 10.30912109 38.07532227 8.875 38.0625 C7.93011719 38.05798828 6.98523438 38.05347656 6.01171875 38.04882812 C3.67441613 38.03702357 1.33723939 38.02055759 -1 38 C-1.02468084 32.90967159 -1.04285082 27.81937785 -1.05493164 22.72900391 C-1.05996682 20.99657586 -1.06679532 19.26415208 -1.07543945 17.53173828 C-1.08754065 15.04458567 -1.09323638 12.55748913 -1.09765625 10.0703125 C-1.10281754 9.29317902 -1.10797882 8.51604553 -1.11329651 7.71536255 C-1.11387171 2.22774341 -1.11387171 2.22774341 0 0 Z " fill="#CBD2EA" transform="translate(163,97)"/>
<path d="M0 0 C1.546875 -0.00773437 1.546875 -0.00773437 3.125 -0.015625 C5.94597278 0.24500835 7.60145718 0.79703656 10 2.25 C9.67 4.56 9.34 6.87 9 9.25 C5.04 8.92 1.08 8.59 -3 8.25 C-3.33 9.9 -3.66 11.55 -4 13.25 C-3.30132812 13.45496094 -2.60265625 13.65992187 -1.8828125 13.87109375 C-0.97273437 14.14050781 -0.06265625 14.40992187 0.875 14.6875 C1.77992188 14.95433594 2.68484375 15.22117187 3.6171875 15.49609375 C6 16.25 6 16.25 8 17.25 C8 17.91 8 18.57 8 19.25 C9.32 19.91 10.64 20.57 12 21.25 C12.45790104 29.98403831 12.45790104 29.98403831 10.9375 34.1875 C7.12545354 38.24548495 2.89481624 39.41325807 -2.5 39.625 C-6.91742797 39.48861286 -10.08753805 38.24785291 -14 36.25 C-13.125 31.5 -13.125 31.5 -12 29.25 C-11.44828125 29.41371094 -10.8965625 29.57742187 -10.328125 29.74609375 C-7.73385993 30.30760414 -5.40164589 30.34739008 -2.75 30.3125 C-1.41195312 30.29896484 -1.41195312 30.29896484 -0.046875 30.28515625 C0.62859375 30.27355469 1.3040625 30.26195313 2 30.25 C2 28.6 2 26.95 2 25.25 C1.16855469 24.86328125 0.33710938 24.4765625 -0.51953125 24.078125 C-1.60621094 23.55734375 -2.69289062 23.0365625 -3.8125 22.5 C-4.89144531 21.98953125 -5.97039062 21.4790625 -7.08203125 20.953125 C-9.97930094 19.26208138 -11.38433651 18.1537526 -13 15.25 C-13.50541498 9.94314269 -13.51553035 6.51885828 -10 2.25 C-6.67415345 0.10767542 -3.90957362 -0.01954787 0 0 Z " fill="#EAEFF6" transform="translate(146,96.75)"/>
<path d="M0 0 C0 1.32 0 2.64 0 4 C1.918125 3.9690625 1.918125 3.9690625 3.875 3.9375 C7.75 3.875 7.75 3.875 10 5 C10 6.98 10 8.96 10 11 C7.94077867 11.53364887 5.87743893 12.05142189 3.8125 12.5625 C2.66394531 12.85253906 1.51539063 13.14257812 0.33203125 13.44140625 C-2.88480093 13.98068761 -4.89672783 13.88247476 -8 13 C-7.34 14.65 -6.68 16.3 -6 18 C-6.66 18 -7.32 18 -8 18 C-8 18.66 -8 19.32 -8 20 C-6.1746875 19.9071875 -6.1746875 19.9071875 -4.3125 19.8125 C-0.43480651 19.80561244 1.91876927 20.49650003 5 23 C5 23.66 5 24.32 5 25 C0.03806234 25.65074592 -4.87040679 26.11672189 -9.875 26.25 C-10.77992187 26.27578125 -11.68484375 26.3015625 -12.6171875 26.328125 C-15 26 -15 26 -16.671875 24.8515625 C-18.41836199 22.41675416 -19.33210643 19.93171357 -20.375 17.125 C-22.96820054 10.64691746 -22.96820054 10.64691746 -28 6 C-31.95484782 4.73693342 -35.92785398 3.79884204 -40 3 C-40 2.34 -40 1.68 -40 1 C-37.45716766 0.89128033 -34.91904912 0.81237599 -32.375 0.75 C-31.66214844 0.71648437 -30.94929688 0.68296875 -30.21484375 0.6484375 C-25.01670252 0.55305876 -22.08447273 1.50605345 -18 5 C-16.51451773 7.29829332 -15.90626939 9.38188843 -15 12 C-13.35 11.67 -11.7 11.34 -10 11 C-8.75722018 5.52779533 -8.75722018 5.52779533 -10.4375 0.5 C-10.953125 0.005 -11.46875 -0.49 -12 -1 C-7.31034294 -2.11658501 -4.46236469 -1.80619523 0 0 Z " fill="#16268C" transform="translate(94,81)"/>
<path d="M0 0 C5.30361016 3.18612402 7.47733312 9.51463435 9.09375 15.2578125 C9.09375 16.2478125 9.09375 17.2378125 9.09375 18.2578125 C14.49730785 19.12897433 18.00038877 19.4779956 23.09375 17.2578125 C29.10243527 16.77324111 32.72543332 17.57365416 38.09375 20.2578125 C38.09375 20.9178125 38.09375 21.5778125 38.09375 22.2578125 C37.36929688 22.45117188 36.64484375 22.64453125 35.8984375 22.84375 C34.44824219 23.23433594 34.44824219 23.23433594 32.96875 23.6328125 C31.958125 23.90480469 30.9475 24.17679688 29.90625 24.45703125 C27.01347218 25.23726133 27.01347218 25.23726133 23.96875 26.4453125 C19.90925442 27.59256125 16.26366434 28.09034748 12.09375 27.2578125 C7.34087726 24.56631828 4.85716033 21.40109262 3.09375 16.2578125 C2.10375 15.9278125 1.11375 15.5978125 0.09375 15.2578125 C-1.51953125 13.55078125 -1.51953125 13.55078125 -3.21875 11.4453125 C-8.57887432 5.17877884 -14.13102479 2.53854523 -21.90625 0.2578125 C-21.90625 -0.4021875 -21.90625 -1.0621875 -21.90625 -1.7421875 C-14.53240488 -4.20013587 -6.99025439 -3.16331132 0 0 Z " fill="#EEEFF5" transform="translate(63.90625,93.7421875)"/>
<path d="M0 0 C0.76441406 -0.020625 1.52882812 -0.04125 2.31640625 -0.0625 C6.87791411 -0.09401301 10.1765906 0.07754402 13.75 3.25 C14.84311928 7.1550248 14.32284703 11.07415609 12.5625 14.6875 C10.42741836 16.52808762 8.41929007 17.3842843 5.75 18.25 C4.8776588 15.25519083 4.64170234 12.61424089 4.6875 9.5 C4.69652344 8.70078125 4.70554688 7.9015625 4.71484375 7.078125 C4.72644531 6.47484375 4.73804688 5.8715625 4.75 5.25 C2.11 5.25 -0.53 5.25 -3.25 5.25 C-3.229375 6.3225 -3.20875 7.395 -3.1875 8.5 C-3.23675265 11.45515893 -3.55402435 13.46609741 -4.25 16.25 C-3.92 17.24 -3.59 18.23 -3.25 19.25 C-3.02674186 21.30893621 -2.84294241 23.37233653 -2.6875 25.4375 C-2.60371094 26.52417969 -2.51992187 27.61085938 -2.43359375 28.73046875 C-2.37300781 29.56191406 -2.31242188 30.39335937 -2.25 31.25 C-1.26 31.58 -0.27 31.91 0.75 32.25 C0.75 32.91 0.75 33.57 0.75 34.25 C1.41 34.58 2.07 34.91 2.75 35.25 C1.75 36.25 1.75 36.25 -0.75390625 36.34765625 C-1.76324219 36.33605469 -2.77257812 36.32445312 -3.8125 36.3125 C-4.82441406 36.30347656 -5.83632812 36.29445312 -6.87890625 36.28515625 C-7.66136719 36.27355469 -8.44382813 36.26195312 -9.25 36.25 C-9.27465098 31.28377651 -9.29283649 26.31758834 -9.30493164 21.35131836 C-9.3099719 19.66055684 -9.31680405 17.96979971 -9.32543945 16.27905273 C-9.33751857 13.85399293 -9.34323123 11.42899056 -9.34765625 9.00390625 C-9.35281754 8.24348526 -9.35797882 7.48306427 -9.36329651 6.69960022 C-9.36349238 4.8826743 -9.31197277 3.06586873 -9.25 1.25 C-7.16321478 -0.83678522 -2.86669969 0.01895339 0 0 Z " fill="#FBFCFA" transform="translate(173.25,97.75)"/>
<path d="M0 0 C4.95 0 9.9 0 15 0 C15 0.33 15 0.66 15 1 C14.09507812 1.09087891 14.09507812 1.09087891 13.171875 1.18359375 C11.97304687 1.30927734 11.97304687 1.30927734 10.75 1.4375 C9.96109375 1.51871094 9.1721875 1.59992188 8.359375 1.68359375 C6.15148789 1.97968457 4.11402404 2.29532532 2 3 C-0.39331572 6.94897094 -0.8590295 11.50380305 0 16 C3.14959175 20.47038829 7.18125735 22.21229602 12.109375 24.203125 C14 25 14 25 15 26 C15.125 28.5 15.125 28.5 15 31 C13.35254404 32.64745596 11.44664549 32.1709616 9.1875 32.1875 C8.31480469 32.20167969 7.44210938 32.21585938 6.54296875 32.23046875 C3.89080915 31.99010406 2.27535001 31.34187309 0 30 C-0.33 32.31 -0.66 34.62 -1 37 C4.56069582 39.25433614 10.0785651 39.59961828 16 40 C14 42 14 42 11.390625 42.265625 C0.98113208 42.21383648 0.98113208 42.21383648 -4 40 C-4 39.01 -4 38.02 -4 37 C-4.66 37 -5.32 37 -6 37 C-6 31.06 -6 25.12 -6 19 C-5.34 18.67 -4.68 18.34 -4 18 C-4 14.7 -4 11.4 -4 8 C-3.34 8 -2.68 8 -2 8 C-1.855625 7.236875 -1.71125 6.47375 -1.5625 5.6875 C-1 3 -1 3 0 0 Z " fill="#192682" transform="translate(134,96)"/>
<path d="M0 0 C0.825 0.37125 1.65 0.7425 2.5 1.125 C6.12016039 2.0300401 6.62885869 1.94324562 9.875 0.75 C12.50770376 -0.02875779 13.54919215 -0.20591411 16.078125 0.94921875 C20.18348852 3.93422543 23.50994173 7.48158591 26.69921875 11.41015625 C28.06575278 13.13416159 28.06575278 13.13416159 30.0625 15.0625 C32.56629521 17.56629521 34.74460236 20.2697818 37 23 C37.66 23.66 38.32 24.32 39 25 C39 25.66 39 26.32 39 27 C45.97761838 27.86147274 45.97761838 27.86147274 53 28 C48.14287384 31.2380841 42.61122685 30.18191271 37.125 29.5625 C31.24190651 27.93918066 27.24728571 23.14176309 23 19 C15.61146959 11.99779798 10.4220811 8.06347766 0 7 C0 6.67 0 6.34 0 6 C1.65 5.67 3.3 5.34 5 5 C3.7625 4.319375 3.7625 4.319375 2.5 3.625 C1.675 3.08875 0.85 2.5525 0 2 C0 1.34 0 0.68 0 0 Z " fill="#2A337D" transform="translate(37,96)"/>
<path d="M0 0 C0.66 0.66 1.32 1.32 2 2 C2.33 1.34 2.66 0.68 3 0 C3.66 0 4.32 0 5 0 C4.67 12.21 4.34 24.42 4 37 C-2.75 38.125 -2.75 38.125 -6 37 C-4.515 36.505 -4.515 36.505 -3 36 C-0.3342134 31.65055871 -0.18497995 25.95146592 -1 21 C-1.99 20.34 -2.98 19.68 -4 19 C-4 18.34 -4 17.68 -4 17 C-5.85625 16.566875 -5.85625 16.566875 -7.75 16.125 C-10.72448742 15.38665206 -13.333856 14.55525067 -16 13 C-16.042721 11.33388095 -16.04063832 9.66617115 -16 8 C-15.67 7.67 -15.34 7.34 -15 7 C-13.0390625 7.0859375 -13.0390625 7.0859375 -10.625 7.375 C-9.43777344 7.51035156 -9.43777344 7.51035156 -8.2265625 7.6484375 C-6 8 -6 8 -3 9 C-2.74984127 5.58357241 -2.74984127 5.58357241 -3 2 C-3.99 1.34 -4.98 0.68 -6 0 C-3 -1 -3 -1 0 0 Z " fill="#1E2984" transform="translate(158,97)"/>
<path d="M0 0 C2.31 0 4.62 0 7 0 C7 12.54 7 25.08 7 38 C4.36 38 1.72 38 -1 38 C-1.02464928 32.74894558 -1.04283568 27.49792455 -1.05493164 22.24682617 C-1.05997218 20.45905979 -1.06680454 18.67129755 -1.07543945 16.88354492 C-1.0875173 14.31948832 -1.09323094 11.75548603 -1.09765625 9.19140625 C-1.10281754 8.3872377 -1.10797882 7.58306915 -1.11329651 6.75453186 C-1.11349215 4.83598285 -1.06201983 2.91754632 -1 1 C-0.67 0.67 -0.34 0.34 0 0 Z " fill="#EEF1FA" transform="translate(120,97)"/>
<path d="M0 0 C2.54283234 -0.10871967 5.08095088 -0.18762401 7.625 -0.25 C8.33785156 -0.28351563 9.05070312 -0.31703125 9.78515625 -0.3515625 C14.98776503 -0.44702321 17.89568171 0.52806912 22 4 C24.57861186 8.78885059 25.79904683 13.73428226 27 19 C28.57201172 19.07347656 28.57201172 19.07347656 30.17578125 19.1484375 C31.55471354 19.22348143 32.9336185 19.29902857 34.3125 19.375 C35.34793945 19.42140625 35.34793945 19.42140625 36.40429688 19.46875 C40.06990789 19.68124919 41.87900792 19.91933861 45 22 C45 22.66 45 23.32 45 24 C40.03806234 24.65074592 35.12959321 25.11672189 30.125 25.25 C29.22007813 25.27578125 28.31515625 25.3015625 27.3828125 25.328125 C25 25 25 25 23.328125 23.8515625 C21.58163801 21.41675416 20.66789357 18.93171357 19.625 16.125 C17.03179946 9.64691746 17.03179946 9.64691746 12 5 C8.04515218 3.73693342 4.07214602 2.79884204 0 2 C0 1.34 0 0.68 0 0 Z " fill="#DFE4F4" transform="translate(54,82)"/>
<path d="M0 0 C2.64 0 5.28 0 8 0 C9.47033252 2.94066505 9 5.74474326 9 9 C9.33 9.99 9.66 10.98 10 12 C10.66 11.67 11.32 11.34 12 11 C12 11.66 12 12.32 12 13 C12.66 13.33 13.32 13.66 14 14 C12.68 14 11.36 14 10 14 C10.33 14.66 10.66 15.32 11 16 C11.039992 17.99960012 11.04346799 20.00047242 11 22 C10.34 22 9.68 22 9 22 C8.67 22.99 8.34 23.98 8 25 C5.36 25 2.72 25 0 25 C0 21.37 0 17.74 0 14 C-0.66 13.67 -1.32 13.34 -2 13 C-1.34 8.71 -0.68 4.42 0 0 Z " fill="#DDE2F0" transform="translate(170,103)"/>
<path d="M0 0 C2.63951032 0.07763266 4.44145873 0.53649848 6.4921875 2.23828125 C10.47696889 6.56373048 12.75067418 11.35273414 15.01953125 16.7421875 C15.80379305 18.92610524 15.80379305 18.92610524 17 20 C19.32817964 20.36760731 21.6618385 20.70241581 24 21 C24 21.33 24 21.66 24 22 C20.7 22 17.4 22 14 22 C13.34 23.32 12.68 24.64 12 26 C9.44766134 22.17149201 8.09955619 18.11706928 6.51171875 13.8125 C3.79591984 8.75985087 -0.73288863 7.59238251 -6 6 C-4.03617993 4.49440461 -2.21736634 3.10868317 0 2 C0 1.34 0 0.68 0 0 Z " fill="#272D8D" transform="translate(62,86)"/>
<path d="M0 0 C2.72977064 -0.08126109 5.4571017 -0.14061663 8.1875 -0.1875 C9.34088867 -0.22520508 9.34088867 -0.22520508 10.51757812 -0.26367188 C15.10436498 -0.32272922 18.40672139 -0.20347521 22 3 C23.09311928 6.9050248 22.57284703 10.82415609 20.8125 14.4375 C18.67741836 16.27808762 16.66929007 17.1342843 14 18 C13.1276588 15.00519083 12.89170234 12.36424089 12.9375 9.25 C12.94652344 8.45078125 12.95554688 7.6515625 12.96484375 6.828125 C12.97644531 6.22484375 12.98804688 5.6215625 13 5 C10.36 5 7.72 5 5 5 C5 4.67 5 4.34 5 4 C6.98 4 8.96 4 11 4 C11 3.34 11 2.68 11 2 C9.3745692 2.14095064 7.74965949 2.28792087 6.125 2.4375 C5.22007812 2.51871094 4.31515625 2.59992188 3.3828125 2.68359375 C0.98889139 2.86989285 0.98889139 2.86989285 -1 4 C-0.67 2.68 -0.34 1.36 0 0 Z " fill="#F1F7FD" transform="translate(165,98)"/>
<path d="M0 0 C1.66514624 0.71896335 3.29571839 1.51699982 4.91796875 2.328125 C4.91796875 2.988125 4.91796875 3.648125 4.91796875 4.328125 C3.83128906 4.61816406 3.83128906 4.61816406 2.72265625 4.9140625 C1.75585938 5.17445312 0.7890625 5.43484375 -0.20703125 5.703125 C-1.21765625 5.97511719 -2.22828125 6.24710937 -3.26953125 6.52734375 C-6.16230907 7.30757383 -6.16230907 7.30757383 -9.20703125 8.515625 C-13.21131588 9.64727066 -16.96505857 10.10762534 -21.08203125 9.328125 C-24.14453125 6.828125 -24.14453125 6.828125 -26.08203125 4.328125 C-24.43203125 4.328125 -22.78203125 4.328125 -21.08203125 4.328125 C-21.08203125 4.988125 -21.08203125 5.648125 -21.08203125 6.328125 C-20.42203125 6.328125 -19.76203125 6.328125 -19.08203125 6.328125 C-19.08203125 6.988125 -19.08203125 7.648125 -19.08203125 8.328125 C-18.06098574 7.34962305 -17.06141915 6.34832073 -16.08203125 5.328125 C-16.08203125 4.998125 -16.08203125 4.668125 -16.08203125 4.328125 C-17.73203125 3.998125 -19.38203125 3.668125 -21.08203125 3.328125 C-21.08203125 2.998125 -21.08203125 2.668125 -21.08203125 2.328125 C-20.14230469 2.12896484 -20.14230469 2.12896484 -19.18359375 1.92578125 C-18.36632812 1.74917969 -17.5490625 1.57257813 -16.70703125 1.390625 C-15.48886719 1.12958984 -15.48886719 1.12958984 -14.24609375 0.86328125 C-4.66613549 -1.5057698 -4.66613549 -1.5057698 0 0 Z " fill="#CED5EE" transform="translate(97.08203125,111.671875)"/>
<path d="M0 0 C2.1328125 1.7421875 2.1328125 1.7421875 4.125 3.875 C5.11886719 4.92300781 5.11886719 4.92300781 6.1328125 5.9921875 C7.05707031 6.98605469 7.05707031 6.98605469 8 8 C8.55945313 8.52722656 9.11890625 9.05445312 9.6953125 9.59765625 C11.54147333 11.58200277 11.72806005 13.34858544 12 16 C11.67 16.66 11.34 17.32 11 18 C8 18 8 18 6.17578125 16.35546875 C5.56089844 15.64003906 4.94601563 14.92460938 4.3125 14.1875 C3.68988281 13.47980469 3.06726562 12.77210937 2.42578125 12.04296875 C1 10 1 10 1 7 C-1.31 6.67 -3.62 6.34 -6 6 C-6 5.01 -6 4.02 -6 3 C-6.99 2.67 -7.98 2.34 -9 2 C-9 1.34 -9 0.68 -9 0 C-5.63849245 -1.12050252 -3.39384812 -0.99938427 0 0 Z " fill="#1F2E87" transform="translate(56,99)"/>
<path d="M0 0 C0.66 0.99 1.32 1.98 2 3 C1.19175781 3.19335938 0.38351563 3.38671875 -0.44921875 3.5859375 C-1.51785156 3.84632812 -2.58648437 4.10671875 -3.6875 4.375 C-4.74324219 4.63023438 -5.79898438 4.88546875 -6.88671875 5.1484375 C-9.96818357 5.92674488 -9.96818357 5.92674488 -12.6953125 7.0859375 C-15.61099271 8.24232592 -17.89151349 8.27630991 -21 8 C-21.66 7.34 -22.32 6.68 -23 6 C-22 3 -22 3 -21 2 C-18.80023376 1.59602148 -16.58930717 1.2521647 -14.375 0.9375 C-13.16585937 0.76089844 -11.95671875 0.58429688 -10.7109375 0.40234375 C-7.0639013 0.00692825 -3.66048612 -0.28470448 0 0 Z " fill="#1C277E" transform="translate(97,106)"/>
<path d="M0 0 C1.32 0.66 2.64 1.32 4 2 C4.042721 3.66611905 4.04063832 5.33382885 4 7 C2.35254404 8.64745596 0.44664549 8.1709616 -1.8125 8.1875 C-2.68519531 8.20167969 -3.55789062 8.21585938 -4.45703125 8.23046875 C-7.10919085 7.99010406 -8.72464999 7.34187309 -11 6 C-11.33 6.66 -11.66 7.32 -12 8 C-12.33 7.34 -12.66 6.68 -13 6 C-13.99 6 -14.98 6 -16 6 C-15.67 4.68 -15.34 3.36 -15 2 C-15 2.66 -15 3.32 -15 4 C-14.401875 3.814375 -13.80375 3.62875 -13.1875 3.4375 C-11 3 -11 3 -8 4 C-8 3.01 -8 2.02 -8 1 C-6.865625 1.020625 -5.73125 1.04125 -4.5625 1.0625 C-1.18424326 1.41577477 -1.18424326 1.41577477 0 0 Z " fill="#243184" transform="translate(145,120)"/>
<path d="M0 0 C0.99 0.66 1.98 1.32 3 2 C3.52637895 6.06063761 3.66230899 8.13899831 1.125 11.4375 C-1 13 -1 13 -3 13 C-3.33 14.65 -3.66 16.3 -4 18 C-4.99 17.34 -5.98 16.68 -7 16 C-7.66 16 -8.32 16 -9 16 C-9 15.34 -9 14.68 -9 14 C-8.34 14 -7.68 14 -7 14 C-6.71125 13.195625 -6.4225 12.39125 -6.125 11.5625 C-5 9 -5 9 -3 8 C-3.33 6.02 -3.66 4.04 -4 2 C-2.68 1.34 -1.36 0.68 0 0 Z " fill="#F6F9FA" transform="translate(154,117)"/>
<path d="M0 0 C2.5637264 1.2818632 3.50828021 2.55900398 5 5 C5.4375 7.5 5.4375 7.5 5 10 C2.7522146 12.79035429 1.42269984 13.85910005 -2 15 C-2.38091797 14.16855469 -2.38091797 14.16855469 -2.76953125 13.3203125 C-3.11371094 12.59585938 -3.45789063 11.87140625 -3.8125 11.125 C-4.14894531 10.40570313 -4.48539062 9.68640625 -4.83203125 8.9453125 C-5.99467097 6.69457194 -5.99467097 6.69457194 -9 5 C-8.67 4.01 -8.34 3.02 -8 2 C-5.53199953 3.15173355 -3.95216435 4.04783565 -2 6 C-2 6.99 -2 7.98 -2 9 C-0.35 8.67 1.3 8.34 3 8 C2.67 6.68 2.34 5.36 2 4 C0.68 4 -0.64 4 -2 4 C-1.34 2.68 -0.68 1.36 0 0 Z " fill="#182682" transform="translate(81,79)"/>
<path d="M0 0 C0.825 0.37125 1.65 0.7425 2.5 1.125 C5.99343988 1.99835997 6.96688975 1.94659018 10.25 1 C11.4875 0.67 12.725 0.34 14 0 C14.66 0.66 15.32 1.32 16 2 C14.125 3.0625 14.125 3.0625 12 4 C11.34 3.67 10.68 3.34 10 3 C10 3.66 10 4.32 10 5 C11.32 5.33 12.64 5.66 14 6 C13.67 6.66 13.34 7.32 13 8 C15.31 8.66 17.62 9.32 20 10 C20 10.66 20 11.32 20 12 C18.25 12.6875 18.25 12.6875 16 13 C14.0625 11.6875 14.0625 11.6875 12 10 C8.08222804 8.09405688 4.31054801 7.5071233 0 7 C0 6.67 0 6.34 0 6 C1.65 5.67 3.3 5.34 5 5 C3.7625 4.319375 3.7625 4.319375 2.5 3.625 C1.675 3.08875 0.85 2.5525 0 2 C0 1.34 0 0.68 0 0 Z " fill="#263190" transform="translate(37,96)"/>
<path d="M0 0 C3.50130346 0.31830031 5.51208629 0.59340524 8.25 2.875 C10 5 10 5 12 8 C13.93398926 8.50394656 13.93398926 8.50394656 16.0625 8.5625 C17.361875 8.706875 18.66125 8.85125 20 9 C20.33 9.66 20.66 10.32 21 11 C16.5637975 11.97396326 12.52552881 12.58478894 8 12 C4.73204071 9.13852992 2.88131825 5.88178666 1 2 C0.67 1.34 0.34 0.68 0 0 Z " fill="#D8E4F7" transform="translate(82,80)"/>
<path d="M0 0 C0.87527344 -0.01417969 1.75054687 -0.02835937 2.65234375 -0.04296875 C5.0625 0.1875 5.0625 0.1875 8.0625 2.1875 C8.0625 2.8475 8.0625 3.5075 8.0625 4.1875 C3.54738589 5.41193772 -0.24458146 6.32158339 -4.9375 6.1875 C-5.9275 6.5175 -6.9175 6.8475 -7.9375 7.1875 C-7.9375 6.5275 -7.9375 5.8675 -7.9375 5.1875 C-8.5975 4.8575 -9.2575 4.5275 -9.9375 4.1875 C-9.2775 4.1875 -8.6175 4.1875 -7.9375 4.1875 C-7.6075 3.1975 -7.2775 2.2075 -6.9375 1.1875 C-4.47380468 -0.04434766 -2.7480499 0.02017658 0 0 Z " fill="#F6FAFB" transform="translate(93.9375,111.8125)"/>
<path d="M0 0 C1.98 0.66 3.96 1.32 6 2 C6 3.32 6 4.64 6 6 C7.27875 5.979375 8.5575 5.95875 9.875 5.9375 C13.75 5.875 13.75 5.875 16 7 C16 8.98 16 10.96 16 13 C13.36 13 10.72 13 8 13 C8 12.67 8 12.34 8 12 C9.98 11.67 11.96 11.34 14 11 C12.741875 10.9175 11.48375 10.835 10.1875 10.75 C7.13133894 10.37676971 6.27757239 10.26889825 4 8.0625 C3 6 3 6 3 4 C0.525 3.01 0.525 3.01 -2 2 C-1.34 1.34 -0.68 0.68 0 0 Z " fill="#313E89" transform="translate(88,79)"/>
<path d="M0 0 C5.625 -0.25 5.625 -0.25 9 2 C8.125 7.875 8.125 7.875 7 9 C4.66702567 9.04092937 2.33294775 9.04241723 0 9 C0 6.03 0 3.06 0 0 Z " fill="#2E377C" transform="translate(171,119)"/>
<path d="M0 0 C1.98 0.66 3.96 1.32 6 2 C6.35474551 5.07446111 6.53698855 7.94127109 6 11 C3 13.5625 3 13.5625 0 15 C-1.125 13.3125 -1.125 13.3125 -2 11 C-1.37943989 9.31562256 -0.70710678 7.64991582 0 6 C0.16757757 2.79129767 0.16757757 2.79129767 0 0 Z " fill="#F8FAF9" transform="translate(180,101)"/>
<path d="M0 0 C2 3 2 3 3.1875 5.625 C4.89552491 8.39313871 4.89552491 8.39313871 8.6875 8.8125 C9.780625 8.874375 10.87375 8.93625 12 9 C12 9.33 12 9.66 12 10 C8.7 10 5.4 10 2 10 C1.34 11.32 0.68 12.64 0 14 C-1.90389849 11.14415227 -2.69462177 9.0688238 -3.625 5.8125 C-4.01558594 4.46091797 -4.01558594 4.46091797 -4.4140625 3.08203125 C-4.60742188 2.39496094 -4.80078125 1.70789063 -5 1 C-3.35 0.67 -1.7 0.34 0 0 Z " fill="#3A4494" transform="translate(74,98)"/>
<path d="M0 0 C2.5654594 2.5654594 2.54046087 4.47686668 3 8 C3.99 8.33 4.98 8.66 6 9 C6 9.66 6 10.32 6 11 C7.98 11 9.96 11 12 11 C12.33 11.99 12.66 12.98 13 14 C12.34 14.66 11.68 15.32 11 16 C10.01 16 9.02 16 8 16 C8 15.34 8 14.68 8 14 C7.34 14 6.68 14 6 14 C6 13.34 6 12.68 6 12 C5.01 12.33 4.02 12.66 3 13 C0.875 12.3125 0.875 12.3125 -1 11 C-1.75 8.875 -1.75 8.875 -2 7 C-1.34 6.67 -0.68 6.34 0 6 C0 4.02 0 2.04 0 0 Z " fill="#DCE0F6" transform="translate(70,104)"/>
<path d="M0 0 C0.66 0 1.32 0 2 0 C2 1.98 2 3.96 2 6 C7.56069582 8.25433614 13.0785651 8.59961828 19 9 C17 11 17 11 14.390625 11.265625 C3.98113208 11.21383648 3.98113208 11.21383648 -1 9 C-1 8.01 -1 7.02 -1 6 C-1.66 6 -2.32 6 -3 6 C-2.67 4.68 -2.34 3.36 -2 2 C-1.34 2 -0.68 2 0 2 C0 1.34 0 0.68 0 0 Z " fill="#202A82" transform="translate(131,127)"/>
<path d="M0 0 C0.66 0.99 1.32 1.98 2 3 C2.66 2.67 3.32 2.34 4 2 C3.979375 2.9075 3.95875 3.815 3.9375 4.75 C3.9889755 7.42672588 4.2215017 9.46988052 5 12 C4.360625 12.103125 3.72125 12.20625 3.0625 12.3125 C2.0415625 12.6528125 2.0415625 12.6528125 1 13 C0.67 13.99 0.34 14.98 0 16 C-2.5 14.625 -2.5 14.625 -5 13 C-5 12.34 -5 11.68 -5 11 C-4.360625 10.443125 -3.72125 9.88625 -3.0625 9.3125 C-0.38084069 6.30579108 -0.30333855 3.94340119 0 0 Z " fill="#364092" transform="translate(187,103)"/>
<path d="M0 0 C5.75 -0.125 5.75 -0.125 8 1 C8.125 3.375 8.125 3.375 8 6 C6 8 6 8 2.875 8.125 C1.451875 8.063125 1.451875 8.063125 0 8 C0 5.36 0 2.72 0 0 Z " fill="#2C347F" transform="translate(171,104)"/>
<path d="M0 0 C4.8333472 -0.08333357 9.23692563 0.04738513 14 1 C13.67 2.65 13.34 4.3 13 6 C12.67 5.34 12.34 4.68 12 4 C11.34 4.185625 10.68 4.37125 10 4.5625 C6.10669886 5.13027308 2.88624521 4.59281707 -1 4 C-0.67 2.68 -0.34 1.36 0 0 Z " fill="#F6F8FC" transform="translate(142,98)"/>
<path d="M0 0 C-0.33 0.99 -0.66 1.98 -1 3 C-2.36125 2.814375 -2.36125 2.814375 -3.75 2.625 C-4.8225 2.74875 -5.895 2.8725 -7 3 C-9.42422186 5.88509913 -9.42422186 5.88509913 -11 9 C-11.53109375 8.52949219 -12.0621875 8.05898437 -12.609375 7.57421875 C-15.51656642 5.6598427 -17.81739077 5.29754261 -21.25 4.8125 C-22.32765625 4.65394531 -23.4053125 4.49539062 -24.515625 4.33203125 C-25.33546875 4.22246094 -26.1553125 4.11289063 -27 4 C-24.19725015 3.19745048 -22.38178245 3.02131785 -19.375 3.125 C-15.05250895 3.20579423 -11.44972746 2.07131039 -7.39453125 0.65625 C-4.82962667 -0.04669285 -2.64675195 -0.11282779 0 0 Z " fill="#E0E3F2" transform="translate(101,122)"/>
<path d="M0 0 C1.52519276 0.08937803 3.04681929 0.24537146 4.5625 0.4375 C5.80193359 0.59025391 5.80193359 0.59025391 7.06640625 0.74609375 C7.70449219 0.82988281 8.34257812 0.91367188 9 1 C8.01 1.33 7.02 1.66 6 2 C6.33 4.31 6.66 6.62 7 9 C1.25 7.125 1.25 7.125 -1 6 C-1.042721 4.33388095 -1.04063832 2.66617115 -1 1 C-0.67 0.67 -0.34 0.34 0 0 Z " fill="#2B368F" transform="translate(143,104)"/>
<path d="M0 0 C2.45862401 -0.05383848 4.9160755 -0.09359038 7.375 -0.125 C8.42300781 -0.15013672 8.42300781 -0.15013672 9.4921875 -0.17578125 C11.32897486 -0.19344267 13.16601963 -0.10303261 15 0 C15.66 0.66 16.32 1.32 17 2 C10.76647981 4.3548854 5.54311329 3.87557031 -1 3 C-0.67 2.01 -0.34 1.02 0 0 Z " fill="#1B297F" transform="translate(75,121)"/>
<path d="M0 0 C2.64 0 5.28 0 8 0 C7.67 0.66 7.34 1.32 7 2 C8.36893239 2.05270463 8.36893239 2.05270463 11 1 C11 1.66 11 2.32 11 3 C10.34 3 9.68 3 9 3 C8.67 4.32 8.34 5.64 8 7 C5.69 7 3.38 7 1 7 C-0.0625 4.625 -0.0625 4.625 -1 2 C-0.67 1.34 -0.34 0.68 0 0 Z " fill="#172584" transform="translate(149,106)"/>
<path d="M0 0 C1.04285156 -0.00515625 2.08570313 -0.0103125 3.16015625 -0.015625 C5.9375 0.25 5.9375 0.25 8.9375 2.25 C4.6475 2.25 0.3575 2.25 -4.0625 2.25 C-4.3925 2.91 -4.7225 3.57 -5.0625 4.25 C-6.0525 4.58 -7.0425 4.91 -8.0625 5.25 C-8.3925 6.24 -8.7225 7.23 -9.0625 8.25 C-9.7225 8.25 -10.3825 8.25 -11.0625 8.25 C-11.3925 10.56 -11.7225 12.87 -12.0625 15.25 C-12.3925 15.25 -12.7225 15.25 -13.0625 15.25 C-13.51061859 6.43700114 -13.51061859 6.43700114 -10.0625 2.25 C-6.72205788 0.0934166 -3.92784178 -0.01946886 0 0 Z " fill="#D2D7F1" transform="translate(146.0625,96.75)"/>
<path d="M0 0 C2.31 0 4.62 0 7 0 C7.66 1.65 8.32 3.3 9 5 C5.23699626 6.25433458 1.72789091 6.10695422 -2.1875 6.0625 C-2.93708984 6.05798828 -3.68667969 6.05347656 -4.45898438 6.04882812 C-6.30602383 6.03706354 -8.15302213 6.01912865 -10 6 C-5.96707255 3.7655402 -2.55032566 3.45503257 2 3 C1.34 2.67 0.68 2.34 0 2 C0 1.34 0 0.68 0 0 Z " fill="#1A2580" transform="translate(54,85)"/>
<path d="M0 0 C0 0.66 0 1.32 0 2 C6.97761838 2.86147274 6.97761838 2.86147274 14 3 C9.64194988 5.90536675 4.80016317 5.40582075 -0.15625 4.6875 C-4.56537824 3.76618962 -7.18000771 2.52499037 -10 -1 C-5.92224809 -1.9267618 -3.57818963 -2.33958553 0 0 Z " fill="#303E88" transform="translate(76,121)"/>
<path d="M0 0 C2.62527189 -0.05382106 5.24944713 -0.09358313 7.875 -0.125 C8.62136719 -0.14175781 9.36773437 -0.15851563 10.13671875 -0.17578125 C12.09194461 -0.1933959 14.04742021 -0.10320189 16 0 C16.66 0.66 17.32 1.32 18 2 C17.38125 2.12375 16.7625 2.2475 16.125 2.375 C13.80879168 2.87197356 13.80879168 2.87197356 12 5 C9.1796875 4.5390625 9.1796875 4.5390625 5.875 3.625 C4.77929688 3.32851562 3.68359375 3.03203125 2.5546875 2.7265625 C1.71164063 2.48679687 0.86859375 2.24703125 0 2 C0 1.34 0 0.68 0 0 Z " fill="#CDD6F2" transform="translate(54,82)"/>
<path d="M0 0 C0.99386719 0.00902344 1.98773438 0.01804687 3.01171875 0.02734375 C4.15060547 0.04474609 4.15060547 0.04474609 5.3125 0.0625 C3.8275 2.5375 3.8275 2.5375 2.3125 5.0625 C-5.3125 4.1875 -5.3125 4.1875 -8.6875 3.0625 C-8.6875 2.4025 -8.6875 1.7425 -8.6875 1.0625 C-5.53819107 0.01273036 -3.29935544 -0.03881595 0 0 Z " fill="#CAD2EC" transform="translate(50.6875,90.9375)"/>
<path d="M0 0 C-0.61875 0.9075 -1.2375 1.815 -1.875 2.75 C-3.44389611 5.14948817 -4.80443821 7.40961612 -6 10 C-6.99 9.34 -7.98 8.68 -9 8 C-9.3125 5 -9.3125 5 -9 2 C-5.96271914 -1.03728086 -4.06215635 -1.35405212 0 0 Z " fill="#F6F9FC" transform="translate(143,105)"/>
<path d="M0 0 C2.4377963 -0.05397335 4.87439685 -0.09365616 7.3125 -0.125 C8.00279297 -0.14175781 8.69308594 -0.15851563 9.40429688 -0.17578125 C13.17135396 -0.21217794 14.78431704 -0.14378864 18 2 C18 2.66 18 3.32 18 4 C11.565 4.495 11.565 4.495 5 5 C5.99 4.67 6.98 4.34 8 4 C8 3.01 8 2.02 8 1 C5.36 1 2.72 1 0 1 C0 0.67 0 0.34 0 0 Z " fill="#CAD2F1" transform="translate(81,102)"/>
<path d="M0 0 C6.50313209 -0.46450943 10.4174808 0.67424388 16 4 C15.01 4.66 14.02 5.32 13 6 C12.01 5.34 11.02 4.68 10 4 C8.34450469 3.61500109 6.6777567 3.27206865 5 3 C5 2.34 5 1.68 5 1 C3.68 1 2.36 1 1 1 C1 5.29 1 9.58 1 14 C0.67 14 0.34 14 0 14 C0 9.38 0 4.76 0 0 Z " fill="#D7DFF5" transform="translate(36,103)"/>
<path d="M0 0 C0.33 1.32 0.66 2.64 1 4 C2.32 4.33 3.64 4.66 5 5 C4.34 6.32 3.68 7.64 3 9 C-2.94 7.515 -2.94 7.515 -9 6 C-7.68 5.34 -6.36 4.68 -5 4 C-3.31110128 2.6949419 -1.6396721 1.36639342 0 0 Z " fill="#29378D" transform="translate(99,105)"/>
<path d="M0 0 C4.95 0 9.9 0 15 0 C15 0.33 15 0.66 15 1 C14.09507812 1.09087891 14.09507812 1.09087891 13.171875 1.18359375 C11.97304687 1.30927734 11.97304687 1.30927734 10.75 1.4375 C9.96109375 1.51871094 9.1721875 1.59992188 8.359375 1.68359375 C6.15150379 1.97968244 4.11360092 2.29391793 2 3 C-0.32321469 7.03505709 -0.53700392 11.44720523 -1 16 C-1.33 16 -1.66 16 -2 16 C-2.05449838 14.27119018 -2.09301688 12.54187288 -2.125 10.8125 C-2.14820313 9.84957031 -2.17140625 8.88664062 -2.1953125 7.89453125 C-2 5 -2 5 0 0 Z " fill="#2F3784" transform="translate(134,96)"/>
<path d="M0 0 C6.27 0 12.54 0 19 0 C19.33 1.32 19.66 2.64 20 4 C19.42475586 3.84152588 18.84951172 3.68305176 18.25683594 3.51977539 C16.09060223 3.02086674 14.10677317 2.80111676 11.890625 2.68359375 C11.13652344 2.64169922 10.38242188 2.59980469 9.60546875 2.55664062 C8.43951172 2.49766602 8.43951172 2.49766602 7.25 2.4375 C6.06083984 2.37272461 6.06083984 2.37272461 4.84765625 2.30664062 C2.89862185 2.20097009 0.94933252 2.10002034 -1 2 C-0.67 1.34 -0.34 0.68 0 0 Z " fill="#222D80" transform="translate(164,95)"/>
<path d="M0 0 C2.375 0.3125 2.375 0.3125 5 1 C5.66 1.99 6.32 2.98 7 4 C5.68 4.33 4.36 4.66 3 5 C3 5.99 3 6.98 3 8 C-1.455 7.01 -1.455 7.01 -6 6 C-4.03617993 4.49440461 -2.21736634 3.10868317 0 2 C0 1.34 0 0.68 0 0 Z " fill="#323C8C" transform="translate(62,86)"/>
<path d="M0 0 C0.99 0.66 1.98 1.32 3 2 C3.80979795 6.4856455 3.48385349 10.7776333 1.8125 15 C-0.2872453 17.31696033 -2.02633445 18.11593727 -5 19 C-4.67 17.35 -4.34 15.7 -4 14 C-3.360625 13.896875 -2.72125 13.79375 -2.0625 13.6875 C-1.0415625 13.3471875 -1.0415625 13.3471875 0 13 C1.49084832 8.52745503 1.49084832 4.47254497 0 0 Z " fill="#D2D9F3" transform="translate(155,116)"/>
<path d="M0 0 C0 0.33 0 0.66 0 1 C-0.56589844 1.12117188 -1.13179687 1.24234375 -1.71484375 1.3671875 C-2.44832031 1.53476563 -3.18179688 1.70234375 -3.9375 1.875 C-4.66839844 2.03742188 -5.39929688 2.19984375 -6.15234375 2.3671875 C-8.20700294 2.82961523 -8.20700294 2.82961523 -9 5 C-9.66 5 -10.32 5 -11 5 C-11 5.99 -11 6.98 -11 8 C-12.32 7.67 -13.64 7.34 -15 7 C-14.67 6.34 -14.34 5.68 -14 5 C-15.65 4.67 -17.3 4.34 -19 4 C-19 3.67 -19 3.34 -19 3 C-18.37351562 2.86722656 -17.74703125 2.73445313 -17.1015625 2.59765625 C-16.28429687 2.42105469 -15.46703125 2.24445313 -14.625 2.0625 C-13.81289062 1.88847656 -13.00078125 1.71445313 -12.1640625 1.53515625 C-7.64677523 0.41806535 -4.83671995 -0.07801161 0 0 Z " fill="#C6CEE7" transform="translate(95,111)"/>
<path d="M0 0 C3.3 0.33 6.6 0.66 10 1 C10 1.99 10 2.98 10 4 C5.545 4.495 5.545 4.495 1 5 C0.67 3.35 0.34 1.7 0 0 Z " fill="#F6FCFC" transform="translate(79,102)"/>
<path d="M0 0 C-0.99 0.33 -1.98 0.66 -3 1 C-3.33 2.32 -3.66 3.64 -4 5 C-7.3 4.67 -10.6 4.34 -14 4 C-14 3.34 -14 2.68 -14 2 C-9.15758367 0.66416101 -5.06562383 -0.25328119 0 0 Z " fill="#172681" transform="translate(100,97)"/>
<path d="M0 0 C0.33 1.65 0.66 3.3 1 5 C-1.31 5 -3.62 5 -6 5 C-6.33 3.68 -6.66 2.36 -7 1 C-4.53721199 -0.231394 -2.7204945 -0.07159196 0 0 Z " fill="#182693" transform="translate(136,119)"/>
<path d="M0 0 C1.89213369 2.38573379 3.02391783 4.07175348 4 7 C3.34 7 2.68 7 2 7 C2 7.66 2 8.32 2 9 C2.66 9.33 3.32 9.66 4 10 C3.34 10.66 2.68 11.32 2 12 C0.5 10.9375 0.5 10.9375 -1 9 C-1.43076923 2.86153846 -1.43076923 2.86153846 0 0 Z " fill="#E9EEF9" transform="translate(77,95)"/>
<path d="M0 0 C2.46800047 1.15173355 4.04783565 2.04783565 6 4 C6.26991906 6.68839385 6.08737357 9.29141936 6 12 C4 9 4 9 3.0625 6.9375 C2.01748702 4.67738896 2.01748702 4.67738896 -1 3 C-0.67 2.01 -0.34 1.02 0 0 Z " fill="#283289" transform="translate(73,81)"/>
<path d="M0 0 C5.28 0.33 10.56 0.66 16 1 C13.29921247 3.70078753 11.75964828 3.29894358 8 3.3125 C6.9275 3.32925781 5.855 3.34601563 4.75 3.36328125 C3.38875 3.18345703 3.38875 3.18345703 2 3 C1.34 2.01 0.68 1.02 0 0 Z " fill="#1C2575" transform="translate(134,135)"/>
<path d="M0 0 C1.98 0 3.96 0 6 0 C6 1.65 6 3.3 6 5 C4.02 5 2.04 5 0 5 C0 3.35 0 1.7 0 0 Z " fill="#18278A" transform="translate(172,122)"/>
<path d="M0 0 C-0.66 1.32 -1.32 2.64 -2 4 C-1.34 4.33 -0.68 4.66 0 5 C-1.65 5.33 -3.3 5.66 -5 6 C-5.33 5.34 -5.66 4.68 -6 4 C-8.52733235 3.34444881 -8.52733235 3.34444881 -11 3 C-11 2.67 -11 2.34 -11 2 C-9.54494642 1.47007308 -8.08581873 0.9513211 -6.625 0.4375 C-5.81289062 0.14746094 -5.00078125 -0.14257812 -4.1640625 -0.44140625 C-2 -1 -2 -1 0 0 Z " fill="#35428B" transform="translate(96,118)"/>
<path d="M0 0 C0.886875 0.78375 1.77375 1.5675 2.6875 2.375 C5.30720519 4.57156991 7.71715601 5.93790341 11 7 C10.01 7.66 9.02 8.32 8 9 C5.73828125 8.3203125 5.73828125 8.3203125 3.3125 7.125 C2.50425781 6.73570313 1.69601563 6.34640625 0.86328125 5.9453125 C0.24839844 5.63335937 -0.36648437 5.32140625 -1 5 C-0.67 3.35 -0.34 1.7 0 0 Z " fill="#2D3881" transform="translate(133,112)"/>
<path d="M0 0 C2.64 0.33 5.28 0.66 8 1 C8.33 1.99 8.66 2.98 9 4 C8.34 4.66 7.68 5.32 7 6 C6.01 6 5.02 6 4 6 C4 5.34 4 4.68 4 4 C3.34 4 2.68 4 2 4 C2 3.34 2 2.68 2 2 C1.34 2 0.68 2 0 2 C0 1.34 0 0.68 0 0 Z " fill="#FBF9FC" transform="translate(74,114)"/>
<path d="M0 0 C1.32 0.33 2.64 0.66 4 1 C4.33 2.65 4.66 4.3 5 6 C3.02 6.99 3.02 6.99 1 8 C0 2.25 0 2.25 0 0 Z " fill="#F4F8F6" transform="translate(66,104)"/>
<path d="M0 0 C0 2.64 0 5.28 0 8 C-0.99 8.33 -1.98 8.66 -3 9 C-2.9071875 7.329375 -2.9071875 7.329375 -2.8125 5.625 C-2.874375 4.42875 -2.93625 3.2325 -3 2 C-3.99 1.34 -4.98 0.68 -6 0 C-3 -1 -3 -1 0 0 Z " fill="#37418B" transform="translate(158,97)"/>
<path d="M0 0 C0.66 0.99 1.32 1.98 2 3 C1.34 3 0.68 3 0 3 C0 3.66 0 4.32 0 5 C0.66 5.33 1.32 5.66 2 6 C1.67 6.66 1.34 7.32 1 8 C0.01 7.67 -0.98 7.34 -2 7 C-2 7.66 -2 8.32 -2 9 C-3.32 8.67 -4.64 8.34 -6 8 C-4.73046875 6.50260417 -3.4609375 5.00520833 -2.19140625 3.5078125 C-0.9121848 1.99405921 -0.9121848 1.99405921 0 0 Z " fill="#404B8E" transform="translate(98,126)"/>
<path d="M0 0 C0.99 0.66 1.98 1.32 3 2 C2.34 4.31 1.68 6.62 1 9 C-0.32 8.34 -1.64 7.68 -3 7 C-2.34 6.01 -1.68 5.02 -1 4 C-0.36707617 1.88719655 -0.36707617 1.88719655 0 0 Z " fill="#1F2B7E" transform="translate(100,124)"/>
<path d="M0 0 C1.65 0 3.3 0 5 0 C5.33 2.31 5.66 4.62 6 7 C5.01 7 4.02 7 3 7 C0 2.77777778 0 2.77777778 0 0 Z " fill="#F7FDF1" transform="translate(180,117)"/>
<path d="M0 0 C2.3125 -0.3125 2.3125 -0.3125 5 0 C6.8125 2.5 6.8125 2.5 8 5 C6.35 5.33 4.7 5.66 3 6 C3 5.01 3 4.02 3 3 C2.01 2.67 1.02 2.34 0 2 C0 1.34 0 0.68 0 0 Z " fill="#1D2796" transform="translate(47,99)"/>
<path d="M0 0 C0.33 0.66 0.66 1.32 1 2 C1.99 1.67 2.98 1.34 4 1 C6.6875 1.4375 6.6875 1.4375 9 2 C8.67 2.99 8.34 3.98 8 5 C5.03 4.67 2.06 4.34 -1 4 C-0.67 2.68 -0.34 1.36 0 0 Z " fill="#FCFEF5" transform="translate(142,98)"/>
<path d="M0 0 C2.64 0.33 5.28 0.66 8 1 C5 2.5 5 2.5 2 4 C1.01 5.485 1.01 5.485 0 7 C-0.99 6.01 -1.98 5.02 -3 4 C-2.505 3.525625 -2.01 3.05125 -1.5 2.5625 C0.11542197 1.24076302 0.11542197 1.24076302 0 0 Z " fill="#E2E7F7" transform="translate(54,92)"/>
<path d="M0 0 C1.32 0.33 2.64 0.66 4 1 C4 2.65 4 4.3 4 6 C1.36 5.34 -1.28 4.68 -4 4 C-3.34 3.525625 -2.68 3.05125 -2 2.5625 C-1.34 2.046875 -0.68 1.53125 0 1 C0 0.67 0 0.34 0 0 Z " fill="#FCFDF6" transform="translate(181,126)"/>
<path d="M0 0 C0.66 0 1.32 0 2 0 C4.29013653 3.4352048 4.17842973 4.985331 4 9 C3.01 9.495 3.01 9.495 2 10 C2 8.02 2 6.04 2 4 C1.01 3.67 0.02 3.34 -1 3 C-0.67 2.01 -0.34 1.02 0 0 Z " fill="#FAFCEC" transform="translate(151,118)"/>
<path d="M0 0 C3.63 0.66 7.26 1.32 11 2 C7.55549263 4.29633824 5.06187717 4.54016485 1 5 C0.67 3.35 0.34 1.7 0 0 Z " fill="#263380" transform="translate(87,90)"/>
<path d="M0 0 C1.65 0 3.3 0 5 0 C5.33 1.32 5.66 2.64 6 4 C3.69 4 1.38 4 -1 4 C-0.67 2.68 -0.34 1.36 0 0 Z " fill="#F3F8FA" transform="translate(68,84)"/>
<path d="M0 0 C1.52519276 0.08937803 3.04681929 0.24537146 4.5625 0.4375 C5.80193359 0.59025391 5.80193359 0.59025391 7.06640625 0.74609375 C7.70449219 0.82988281 8.34257812 0.91367188 9 1 C9 1.33 9 1.66 9 2 C6.36 2 3.72 2 1 2 C1 3.32 1 4.64 1 6 C0.34 6 -0.32 6 -1 6 C-1.042721 4.33388095 -1.04063832 2.66617115 -1 1 C-0.67 0.67 -0.34 0.34 0 0 Z " fill="#3E4181" transform="translate(143,104)"/>
<path d="M0 0 C0.66 0.99 1.32 1.98 2 3 C-2.29 2.67 -6.58 2.34 -11 2 C-6.76121589 -0.11939205 -4.64467095 -0.43006213 0 0 Z " fill="#1A227F" transform="translate(69,79)"/>
<path d="M0 0 C0.33 0 0.66 0 1 0 C1.33 2.31 1.66 4.62 2 7 C-0.31 7 -2.62 7 -5 7 C-4.67 6.34 -4.34 5.68 -4 5 C-3.34 5 -2.68 5 -2 5 C-1.34 3.35 -0.68 1.7 0 0 Z " fill="#333D8B" transform="translate(157,128)"/>
<path d="M0 0 C0.33 0 0.66 0 1 0 C2.125 6.75 2.125 6.75 1 9 C-0.32 9 -1.64 9 -3 9 C-2.5020163 5.26512223 -2.12508244 3.18762365 0 0 Z " fill="#313D8F" transform="translate(36,117)"/>
<path d="M0 0 C-0.99 1.485 -0.99 1.485 -2 3 C-1.67 3.66 -1.34 4.32 -1 5 C-1.8353125 4.566875 -1.8353125 4.566875 -2.6875 4.125 C-5.08494645 2.9586747 -7.51596939 1.9660119 -10 1 C-2.8 -1.4 -2.8 -1.4 0 0 Z " fill="#242F97" transform="translate(147,121)"/>
<path d="M0 0 C7.42857143 1 7.42857143 1 11 2 C11 2.66 11 3.32 11 4 C9.25 4.6875 9.25 4.6875 7 5 C4.9375 3.6875 4.9375 3.6875 3 2 C2.01 1.34 1.02 0.68 0 0 Z " fill="#3A458D" transform="translate(46,104)"/>
<path d="M0 0 C0.33 1.32 0.66 2.64 1 4 C-2.63 3.34 -6.26 2.68 -10 2 C-10 1.67 -10 1.34 -10 1 C-2.25 0 -2.25 0 0 0 Z " fill="#D5DBF3" transform="translate(154,102)"/>
<path d="M0 0 C4.875 4.75 4.875 4.75 6 7 C4.35 7 2.7 7 1 7 C0.67 4.69 0.34 2.38 0 0 Z " fill="#3A458A" transform="translate(40,128)"/>
<path d="M0 0 C0.66 0 1.32 0 2 0 C3.125 5.75 3.125 5.75 2 8 C1.34 8 0.68 8 0 8 C0 5.36 0 2.72 0 0 Z " fill="#2A347F" transform="translate(158,120)"/>
<path d="M0 0 C0.66 0.33 1.32 0.66 2 1 C2.625 4.0625 2.625 4.0625 3 7 C2.01 7.33 1.02 7.66 0 8 C-0.66 6.02 -1.32 4.04 -2 2 C-1.34 2 -0.68 2 0 2 C0 1.34 0 0.68 0 0 Z " fill="#D7D7EC" transform="translate(149,118)"/>
<path d="M0 0 C2 1 2 1 4 3 C4.36933645 5.75372909 4.18336678 8.20365661 4 11 C3.67 11 3.34 11 3 11 C3 9.02 3 7.04 3 5 C2.01 4.67 1.02 4.34 0 4 C-0.33 3.01 -0.66 2.02 -1 1 C-0.67 0.67 -0.34 0.34 0 0 Z " fill="#C8D1EF" transform="translate(185,117)"/>
<path d="M0 0 C1.32 0.66 2.64 1.32 4 2 C4 4.97 4 7.94 4 11 C3.67 11 3.34 11 3 11 C2.855625 10.05125 2.71125 9.1025 2.5625 8.125 C2.17064601 5.1065506 2.17064601 5.1065506 1 3 C0.34 3 -0.32 3 -1 3 C-0.67 2.01 -0.34 1.02 0 0 Z " fill="#D9DDF7" transform="translate(183,99)"/>
<path d="M0 0 C0.99 0.66 1.98 1.32 3 2 C2.34 2 1.68 2 1 2 C1 2.66 1 3.32 1 4 C3.64 4 6.28 4 9 4 C9 4.33 9 4.66 9 5 C5.7 5 2.4 5 -1 5 C-1.33 4.01 -1.66 3.02 -2 2 C-1.34 2 -0.68 2 0 2 C0 1.34 0 0.68 0 0 Z " fill="#38418E" transform="translate(85,97)"/>
<path d="M0 0 C0.33 0.66 0.66 1.32 1 2 C1.639375 2.144375 2.27875 2.28875 2.9375 2.4375 C5 3 5 3 7 6 C4.03 5.505 4.03 5.505 1 5 C0.67 3.35 0.34 1.7 0 0 Z " fill="#BFC6EB" transform="translate(132,129)"/>
<path d="M0 0 C0.33 0 0.66 0 1 0 C1.1875 3.375 1.1875 3.375 1 7 C0.01 7.66 -0.98 8.32 -2 9 C-3 6 -3 6 -1.5625 2.8125 C-1.046875 1.884375 -0.53125 0.95625 0 0 Z " fill="#EBF0F9" transform="translate(187,123)"/>
<path d="M0 0 C0.99 0 1.98 0 3 0 C3 0.99 3 1.98 3 3 C2.34 3 1.68 3 1 3 C0.67 5.31 0.34 7.62 0 10 C-0.33 10 -0.66 10 -1 10 C-1.125 2.25 -1.125 2.25 0 0 Z " fill="#C9CFEA" transform="translate(134,102)"/>
<path d="M0 0 C0.86625 0.556875 0.86625 0.556875 1.75 1.125 C1.75 1.455 1.75 1.785 1.75 2.125 C0.80125 2.228125 -0.1475 2.33125 -1.125 2.4375 C-4.54107501 2.81039295 -4.54107501 2.81039295 -6.25 6.125 C-6.58 5.135 -6.91 4.145 -7.25 3.125 C-5.61609754 -0.14280491 -3.47460528 -1.35123539 0 0 Z " fill="#172575" transform="translate(41.25,99.875)"/>
<path d="M0 0 C0.99 0.99 1.98 1.98 3 3 C2 5 2 5 0 8 C-0.66 8 -1.32 8 -2 8 C-1.47731534 5.23723823 -0.89130413 2.6739124 0 0 Z " fill="#323C98" transform="translate(86,86)"/>
<path d="M0 0 C2.46278801 1.231394 3.42497687 2.78064923 5 5 C4.67 5.66 4.34 6.32 4 7 C3.34 6.67 2.68 6.34 2 6 C2 5.34 2 4.68 2 4 C0.68 4 -0.64 4 -2 4 C-1.34 2.68 -0.68 1.36 0 0 Z " fill="#273484" transform="translate(81,79)"/>
<path d="M0 0 C3.465 1.98 3.465 1.98 7 4 C7 4.99 7 5.98 7 7 C5.68 6.67 4.36 6.34 3 6 C2.67 4.68 2.34 3.36 2 2 C1.34 2 0.68 2 0 2 C0 1.34 0 0.68 0 0 Z " fill="#2E3A83" transform="translate(46,136)"/>
<path d="M0 0 C-0.33 0.99 -0.66 1.98 -1 3 C-4.3 3 -7.6 3 -11 3 C-7.11595442 0.41063628 -4.5725325 -0.12358196 0 0 Z " fill="#AFBDE5" transform="translate(101,122)"/>
<path d="M0 0 C2.475 0.495 2.475 0.495 5 1 C5.33 1.99 5.66 2.98 6 4 C4.02 4.33 2.04 4.66 0 5 C0 3.33333333 0 1.66666667 0 0 Z " fill="#CBD5F3" transform="translate(96,112)"/>
<path d="M0 0 C2.475 0.99 2.475 0.99 5 2 C4.01 2.495 4.01 2.495 3 3 C3 3.66 3 4.32 3 5 C2.01 5 1.02 5 0 5 C-0.33 4.01 -0.66 3.02 -1 2 C-0.67 1.34 -0.34 0.68 0 0 Z " fill="#E8EAF6" transform="translate(71,111)"/>
<path d="M0 0 C1.65 0.99 3.3 1.98 5 3 C4.34 4.32 3.68 5.64 3 7 C0 3.375 0 3.375 0 0 Z " fill="#DCE2F5" transform="translate(62,103)"/>
<path d="M0 0 C1.85776765 3.13498292 2.20140476 5.37471432 2 9 C0.5 7.8125 0.5 7.8125 -1 6 C-1.25 3.375 -1.25 3.375 -1 1 C-0.67 0.67 -0.34 0.34 0 0 Z " fill="#3F4393" transform="translate(80,93)"/>
<path d="M0 0 C1.0625 1.875 1.0625 1.875 2 4 C1.67 4.66 1.34 5.32 1 6 C-0.65 6 -2.3 6 -4 6 C-2.68 4.02 -1.36 2.04 0 0 Z " fill="#343D8A" transform="translate(188,128)"/>
<path d="M0 0 C0.33 0.66 0.66 1.32 1 2 C2.32 1.67 3.64 1.34 5 1 C5.66 1.99 6.32 2.98 7 4 C6.34 4 5.68 4 5 4 C4.67 4.66 4.34 5.32 4 6 C3.67 5.34 3.34 4.68 3 4 C2.01 4 1.02 4 0 4 C0 2.68 0 1.36 0 0 Z " fill="#2B3890" transform="translate(129,122)"/>
<path d="M0 0 C1.5625 1.8125 1.5625 1.8125 3 4 C2.67 4.99 2.34 5.98 2 7 C0.68 5.68 -0.64 4.36 -2 3 C-1 1 -1 1 0 0 Z " fill="#15248B" transform="translate(61,106)"/>
<path d="M0 0 C0.99 0.33 1.98 0.66 3 1 C2.67 2.32 2.34 3.64 2 5 C0.68 4.67 -0.64 4.34 -2 4 C-2 3.34 -2 2.68 -2 2 C-1.34 2 -0.68 2 0 2 C0 1.34 0 0.68 0 0 Z " fill="#1E2D76" transform="translate(71,95)"/>
</svg>
